<svg viewBox="0 0 100 100" xmlns="http://www.w3.org/2000/svg">
  <defs>
    <clipPath id="frame"><rect x="18" y="12" width="64" height="76" rx="18"/></clipPath>
    <mask id="subject"><rect width="100" height="100" fill="white"/><rect x="38" y="27" width="24" height="48" rx="12" fill="black"/></mask>
    <circle id="dot" r="3" fill="currentColor"/>
  </defs>
  <g clip-path="url(#frame)" mask="url(#subject)">
    <use href="#dot" x="24" y="22"/><use href="#dot" x="38" y="22"/><use href="#dot" x="52" y="22"/><use href="#dot" x="66" y="22"/><use href="#dot" x="80" y="22"/>
    <use href="#dot" x="24" y="36"/><use href="#dot" x="38" y="36"/><use href="#dot" x="52" y="36"/><use href="#dot" x="66" y="36"/><use href="#dot" x="80" y="36"/>
    <use href="#dot" x="24" y="50"/><use href="#dot" x="38" y="50"/><use href="#dot" x="52" y="50"/><use href="#dot" x="66" y="50"/><use href="#dot" x="80" y="50"/>
    <use href="#dot" x="24" y="64"/><use href="#dot" x="38" y="64"/><use href="#dot" x="52" y="64"/><use href="#dot" x="66" y="64"/><use href="#dot" x="80" y="64"/>
    <use href="#dot" x="24" y="78"/><use href="#dot" x="38" y="78"/><use href="#dot" x="52" y="78"/><use href="#dot" x="66" y="78"/><use href="#dot" x="80" y="78"/>
  </g>
</svg>
